<svg width="24" height="24" viewBox="0 0 24 24" fill="none" xmlns="http://www.w3.org/2000/svg">
<path d="M18 21V10C18 9.73478 17.8946 9.48043 17.7071 9.29289C17.5196 9.10536 17.2652 9 17 9H7C6.73478 9 6.48043 9.10536 6.29289 9.29289C6.10536 9.48043 6 9.73478 6 10V21" stroke="white" stroke-width="2" stroke-linecap="round" stroke-linejoin="round"/>
<path d="M22 18.9999C22 19.5303 21.7893 20.039 21.4142 20.4141C21.0391 20.7892 20.5304 20.9999 20 20.9999H4C3.46957 20.9999 2.96086 20.7892 2.58579 20.4141C2.21071 20.039 2 19.5303 2 18.9999V7.9999C1.99978 7.62327 2.10591 7.25424 2.30617 6.93527C2.50643 6.6163 2.79269 6.36035 3.132 6.1969L11.082 2.2229C11.3659 2.07611 11.6809 1.99951 12.0005 1.99951C12.3201 1.99951 12.6351 2.07611 12.919 2.2229L20.867 6.1969C21.2065 6.36021 21.493 6.61609 21.6934 6.93507C21.8939 7.25405 22.0001 7.62316 22 7.9999V18.9999Z" stroke="white" stroke-width="2" stroke-linecap="round" stroke-linejoin="round"/>
<path d="M6 13H18" stroke="white" stroke-width="2" stroke-linecap="round" stroke-linejoin="round"/>
<path d="M6 17H18" stroke="white" stroke-width="2" stroke-linecap="round" stroke-linejoin="round"/>
</svg>
